<svg width="30" height="26" viewBox="0 0 30 26" fill="none" xmlns="http://www.w3.org/2000/svg">
<path opacity="0.3" fill-rule="evenodd" clip-rule="evenodd" d="M7.88428 23.3938L5.96833 25.7023C2.21539 22.5875 0 17.9731 0 13C0 8.03387 2.20923 3.42518 5.95328 0.310303L7.87195 2.61653C4.8059 5.16735 3 8.93465 3 13C3 17.0711 4.81094 20.843 7.88428 23.3938ZM22.1157 23.3938L24.0317 25.7023C27.7846 22.5875 30 17.9731 30 13C30 8.03387 27.7908 3.42518 24.0467 0.310303L22.128 2.61653C25.1941 5.16735 27 8.93465 27 13C27 17.0711 25.1891 20.843 22.1157 23.3938ZM18.2677 18.7899L20.1763 21.1045C22.5793 19.123 24 16.1761 24 13C24 9.83442 22.5886 6.89615 20.1992 4.91448L18.2841 7.22369C19.9934 8.64131 21 10.7369 21 13C21 15.2707 19.9868 17.3724 18.2677 18.7899ZM9.82365 21.1045L11.7323 18.7899C10.0132 17.3724 9 15.2707 9 13C9 10.7369 10.0066 8.64131 11.7159 7.22369L9.80083 4.91448C7.41136 6.89615 6 9.83442 6 13C6 16.1761 7.42071 19.123 9.82365 21.1045Z" fill="#99EFD0"/>
</svg>
